<svg width="32" height="32" xmlns="http://www.w3.org/2000/svg">

 <g>
  <title>background</title>
  <rect fill="none" id="canvas_background" height="602" width="802" y="-1" x="-1"/>
 </g>
 <g>
  <title>Layer 1</title>
  <path fill="#ffffff" id="svg_1" d="m31.008,27.231l-7.58,-6.447c-0.784,-0.705 -1.622,-1.029 -2.299,-0.998c1.789,-2.096 2.87,-4.815 2.87,-7.787c0,-6.627 -5.373,-12 -12,-12s-12,5.373 -12,12s5.373,12 12,12c2.972,0 5.691,-1.081 7.787,-2.87c-0.031,0.677 0.293,1.515 0.998,2.299l6.447,7.58c1.104,1.226 2.907,1.33 4.007,0.23s0.997,-2.903 -0.23,-4.007zm-19.008,-7.231c-4.418,0 -8,-3.582 -8,-8s3.582,-8 8,-8s8,3.582 8,8s-3.582,8 -8,8z"/>
 </g>
</svg>