<svg width="32" height="32" xmlns="http://www.w3.org/2000/svg">

 <g>
  <title>background</title>
  <rect fill="none" id="canvas_background" height="602" width="802" y="-1" x="-1"/>
 </g>
 <g>
  <title>Layer 1</title>
  <path fill="#ffffff" id="svg_1" d="m16,26c1.105,0 2,0.895 2,2l0,2c0,1.105 -0.895,2 -2,2s-2,-0.895 -2,-2l0,-2c0,-1.105 0.895,-2 2,-2zm0,-20c-1.105,0 -2,-0.895 -2,-2l0,-2c0,-1.105 0.895,-2 2,-2s2,0.895 2,2l0,2c0,1.105 -0.895,2 -2,2zm14,8c1.105,0 2,0.895 2,2s-0.895,2 -2,2l-2,0c-1.105,0 -2,-0.895 -2,-2s0.895,-2 2,-2l2,0zm-24,2c0,1.105 -0.895,2 -2,2l-2,0c-1.105,0 -2,-0.895 -2,-2s0.895,-2 2,-2l2,0c1.105,0 2,0.895 2,2zm19.899,7.071l1.414,1.414c0.781,0.781 0.781,2.047 0,2.828s-2.047,0.781 -2.828,0l-1.414,-1.414c-0.781,-0.781 -0.781,-2.047 0,-2.828s2.047,-0.781 2.828,0zm-19.798,-14.142l-1.414,-1.414c-0.781,-0.781 -0.781,-2.047 0,-2.828s2.047,-0.781 2.828,0l1.414,1.414c0.781,0.781 0.781,2.047 0,2.828s-2.047,0.781 -2.828,0zm19.798,0c-0.781,0.781 -2.047,0.781 -2.828,0s-0.781,-2.047 0,-2.828l1.414,-1.414c0.781,-0.781 2.047,-0.781 2.828,0s0.781,2.047 0,2.828l-1.414,1.414zm-19.798,14.142c0.781,-0.781 2.047,-0.781 2.828,0s0.781,2.047 0,2.828l-1.414,1.414c-0.781,0.781 -2.047,0.781 -2.828,0s-0.781,-2.047 0,-2.828l1.414,-1.414z"/>
  <path fill="#ffffff" id="svg_2" d="m16,8c-4.418,0 -8,3.582 -8,8s3.582,8 8,8c4.418,0 8,-3.582 8,-8s-3.582,-8 -8,-8zm0,13c-2.761,0 -5,-2.239 -5,-5s2.239,-5 5,-5s5,2.239 5,5s-2.239,5 -5,5z"/>
 </g>
</svg>